HIERARCHY
ROOT SpineBase
{
  OFFSET 0.000000 0.000000 0.000000
  CHANNELS 6 Xposition Yposition Zposition Zrotation Xrotation Yrotation
  JOINT SpineMid
  {
    OFFSET -0.000000 29.936418 0.000000
    CHANNELS 3 Zrotation Xrotation Yrotation
    JOINT SpineShoulder
    {
      OFFSET 0.136638 22.219489 -0.670100
      CHANNELS 3 Zrotation Xrotation Yrotation
      JOINT Neck
      {
        OFFSET 0.103934 7.348045 -0.510873
        CHANNELS 3 Zrotation Xrotation Yrotation
        JOINT Head
        {
          OFFSET 1.580137 12.352668 4.081599
          CHANNELS 3 Zrotation Xrotation Yrotation
          End Site
          {
            OFFSET 0 0 0
          }
        }
      }
      JOINT ShoulderLeft
      {
        OFFSET -0.495487 -5.589075 -11.792806
        CHANNELS 3 Zrotation Xrotation Yrotation
        JOINT ElbowLeft
        {
          OFFSET 8.652630 -23.625940 -3.781712
          CHANNELS 3 Zrotation Xrotation Yrotation
          JOINT WristLeft
          {
            OFFSET 6.021438 -19.942894 4.513847
            CHANNELS 3 Zrotation Xrotation Yrotation
            JOINT HandLeft
            {
              OFFSET -0.486349 -8.153289 3.635445
              CHANNELS 3 Zrotation Xrotation Yrotation
              JOINT HandTipLeft
              {
                OFFSET 1.215658 -7.388733 0.480226
                CHANNELS 3 Zrotation Xrotation Yrotation
                End Site
                {
                  OFFSET 0 0 0
                }
              }
              JOINT ThumbLeft
              {
                OFFSET -4.256786 0.704670 0.136596
                CHANNELS 3 Zrotation Xrotation Yrotation
                End Site
                {
                  OFFSET 0 0 0
                }
              }
            }
          }
        }
      }
      JOINT ShoulderRight
      {
        OFFSET 1.184262 -7.613608 12.755452
        CHANNELS 3 Zrotation Xrotation Yrotation
        JOINT ElbowRight
        {
          OFFSET -1.412733 -23.836869 5.988348
          CHANNELS 3 Zrotation Xrotation Yrotation
          JOINT WristRight
          {
            OFFSET 2.255059 -24.353417 4.056851
            CHANNELS 3 Zrotation Xrotation Yrotation
            JOINT HandRight
            {
              OFFSET 0.685517 -8.182541 1.698582
              CHANNELS 3 Zrotation Xrotation Yrotation
              JOINT HandTipRight
              {
                OFFSET 0.845619 -0.333249 -2.184272
                CHANNELS 3 Zrotation Xrotation Yrotation
                End Site
                {
                  OFFSET 0 0 0
                }
              }
              JOINT ThumbRight
              {
                OFFSET 1.704886 1.247203 -4.893156
                CHANNELS 3 Zrotation Xrotation Yrotation
                End Site
                {
                  OFFSET 0 0 0
                }
              }
            }
          }
        }
      }
    }
  }
  JOINT HipLeft
  {
    OFFSET 0.816078 2.160590 -6.851276
    CHANNELS 3 Zrotation Xrotation Yrotation
    JOINT KneeLeft
    {
      OFFSET -0.720187 -35.996801 2.554975
      CHANNELS 3 Zrotation Xrotation Yrotation
      JOINT AnkleLeft
      {
        OFFSET -5.365719 -34.134532 1.076142
        CHANNELS 3 Zrotation Xrotation Yrotation
        JOINT FootLeft
        {
          OFFSET 10.396664 -3.560499 -3.238903
          CHANNELS 3 Zrotation Xrotation Yrotation
          End Site
          {
            OFFSET 0 0 0
          }
        }
      }
    }
  }
  JOINT HipRight
  {
    OFFSET 0.372281 -0.463305 0.757198
    CHANNELS 3 Zrotation Xrotation Yrotation
    JOINT KneeRight
    {
      OFFSET -9.352936 -34.693114 2.101624
      CHANNELS 3 Zrotation Xrotation Yrotation
      JOINT AnkleRight
      {
        OFFSET -5.020374 -36.002895 8.345405
        CHANNELS 3 Zrotation Xrotation Yrotation
        JOINT FootRight
        {
          OFFSET 8.117146 -3.517029 -12.107395
          CHANNELS 3 Zrotation Xrotation Yrotation
          End Site
          {
            OFFSET 0 0 0
          }
        }
      }
    }
  }
}
MOTION
Frames: 6
Frame Time: 0.033333
-55.819463 77.799254 275.975467 0.000000 0.000000 -93.338244 0.000000 -0.000000 93.338244 -0.000000 0.000000 0.000000 -0.000000 0.000000 0.000000 0.000000 0.000000 0.000000 -0.000000 0.000000 0.000000 -0.000000 0.000000 0.000000 -0.000000 0.000000 0.000000 -0.000000 0.000000 0.000000 0.000000 0.000000 0.000000 0.000000 0.000000 0.000000 -0.000000 0.000000 0.000000 -0.000000 0.000000 0.000000 -0.000000 0.000000 0.000000 -0.000000 0.000000 0.000000 0.000000 0.000000 0.000000 0.000000 0.000000 0.000000 0.000000 -0.000000 93.338244 -0.000000 0.000000 0.000000 -0.000000 0.000000 0.000000 0.000000 0.000000 0.000000 0.000000 -0.000000 93.338244 -0.000000 0.000000 0.000000 -0.000000 0.000000 0.000000 0.000000 0.000000 0.000000
-55.806903 77.795275 276.025400 0.054127 0.105061 -93.667533 0.108308 -0.047296 93.667528 -0.000000 0.000000 0.000000 -0.000000 0.000000 0.000000 0.000000 0.000000 0.000000 -0.000000 0.000000 0.000000 -0.000000 0.000000 0.000000 -1.138005 1.116881 -0.565087 1.149178 -1.105382 0.587266 0.000000 0.000000 0.000000 0.000000 0.000000 0.000000 -0.000000 0.000000 0.000000 -0.000000 0.000000 0.000000 -0.000000 0.000000 0.000000 -0.000000 0.000000 0.000000 0.000000 0.000000 0.000000 0.000000 0.000000 0.000000 0.108308 -0.047296 93.667528 -0.000000 0.000000 0.000000 -0.000000 0.000000 0.000000 0.000000 0.000000 0.000000 -0.609653 0.556029 93.526949 -1.990947 -1.817838 -0.042641 1.356916 -0.455341 -3.755568 0.000000 0.000000 0.000000
-55.805508 77.789689 276.065179 0.092314 0.199253 -93.984366 0.205186 -0.078246 93.984345 -0.000000 0.000000 0.000000 -0.000000 0.000000 0.000000 0.000000 0.000000 0.000000 -0.000000 0.000000 0.000000 -0.000000 0.000000 0.000000 -2.080998 2.060876 -1.020556 2.372508 -3.010754 0.958471 0.000000 0.000000 0.000000 0.000000 0.000000 0.000000 -0.000000 0.000000 0.000000 -0.000000 0.000000 0.000000 -0.000000 0.000000 0.000000 0.224869 0.155389 -1.065106 0.000000 0.000000 0.000000 0.000000 0.000000 0.000000 0.205186 -0.078246 93.984345 -0.000000 0.000000 0.000000 -0.000000 0.000000 0.000000 0.000000 0.000000 0.000000 -1.104295 1.041645 93.736469 -3.529137 -3.178559 -0.112300 2.225496 -1.228717 -7.459882 0.000000 0.000000 0.000000
-55.815278 77.782495 276.094803 0.114571 0.282584 -94.287472 0.290358 -0.093125 94.287426 -0.000000 0.000000 0.000000 -0.000000 0.000000 0.000000 0.000000 0.000000 0.000000 -0.000000 0.000000 0.000000 -0.022058 1.045116 0.311434 -2.793225 1.791922 -1.734820 3.135072 -4.051374 1.323770 0.000000 0.000000 0.000000 0.000000 0.000000 0.000000 -0.000000 0.000000 0.000000 -0.000000 0.000000 0.000000 -0.000000 0.000000 0.000000 0.380698 0.377743 -1.493079 0.000000 0.000000 0.000000 0.000000 0.000000 0.000000 0.290358 -0.093125 94.287426 -0.000000 0.000000 0.000000 -0.000000 0.000000 0.000000 0.000000 0.000000 0.000000 -1.482526 1.457861 93.963306 -4.626691 -4.089563 -0.174819 2.633431 -2.202319 -10.833211 0.000000 0.000000 0.000000
-55.836212 77.773695 276.114273 0.120908 0.355061 -94.575654 0.363575 -0.092198 94.575572 -0.000000 0.000000 0.000000 -0.000000 0.000000 0.000000 0.000000 0.000000 0.000000 -0.000000 0.000000 0.000000 -0.026972 1.317303 0.393010 -3.329882 2.095273 -2.095562 3.602624 -4.793811 1.590900 0.000000 0.000000 0.000000 0.000000 0.000000 0.000000 -0.000000 0.000000 0.000000 -0.000000 0.000000 0.000000 -0.000000 0.000000 0.000000 0.565898 0.697698 -1.845274 0.000000 0.000000 0.000000 0.000000 0.000000 0.000000 0.363575 -0.092198 94.575572 -0.000000 0.000000 0.000000 -0.000000 0.000000 0.000000 0.000000 0.000000 0.000000 -1.743110 1.806004 94.204336 -5.288961 -4.554945 -0.206998 2.630416 -3.262673 -13.597987 0.000000 0.000000 0.000000
-55.868310 77.763288 276.123588 0.111333 0.416693 -94.847799 0.424611 -0.075721 94.847675 -0.000000 0.000000 0.000000 0.107486 -0.858200 0.075266 0.000000 0.000000 0.000000 -0.000000 0.000000 0.000000 -0.030337 1.550274 0.463106 -3.669800 2.237909 -2.347632 3.768459 -5.244306 1.749562 0.000000 0.000000 0.000000 0.000000 0.000000 0.000000 -0.000000 0.000000 0.000000 -0.000000 0.000000 0.000000 -0.000000 0.000000 0.000000 0.779753 1.114470 -2.118577 0.000000 0.000000 0.000000 0.000000 0.000000 0.000000 1.144096 -0.578556 94.825409 0.561570 0.674638 0.023067 -0.000000 0.000000 0.000000 0.000000 0.000000 0.000000 -1.884911 2.087589 94.456849 -5.515153 -4.573485 -0.195704 2.275047 -4.322174 -15.522492 0.000000 0.000000 0.000000
